<svg xmlns="http://www.w3.org/2000/svg" xmlns:xlink="http://www.w3.org/1999/xlink" viewBox="0 0 829.01 359.24"><defs><style>.cls-1{fill:#63b442;}.cls-2{fill:#00a045;}.cls-3{fill:#008237;}.cls-4{fill:#007135;}.cls-5{fill:#0db14b;}.cls-6{fill:#02943f;}.cls-7{fill:#77c043;}.cls-8{fill:none;}.cls-9{fill:#01923e;}.cls-10{fill:#80c342;}.cls-11{fill:#00a651;}</style><symbol id="Grass_1" data-name="Grass 1" viewBox="0 0 28.9 44.07"><path class="cls-1" d="M13.49,40.74S18.23,25.17,11.39,0C23.73,22.34,15.9,36,13.49,40.74Z"/><path class="cls-2" d="M11.13,37.63S12.47,26,0,17.15c10.77,11.43,9,21,10.32,26.92Z"/><path class="cls-3" d="M19.72,39.82s-2.42-11.58,5.65-17A81.54,81.54,0,0,0,19.72,39.82Z"/><path class="cls-4" d="M22.13,40.11s-.16-7.89,4.92-9.73C28.07,29.56,25.57,35,22.13,40.11Z"/><path class="cls-3" d="M10.72,29s3.83-7.92-7.07-21.66C6.38,13.39,9.63,21.24,10.72,29Z"/><path class="cls-2" d="M19.62,25.76S20.15,6.4,28.9,3.48C23.87,11.7,22.54,16.21,19.62,25.76Z"/></symbol><symbol id="Grass_2" data-name="Grass 2" viewBox="0 0 17.74 30.93"><path class="cls-5" d="M0,2.78C2.72,6.59,5.56,10,6.41,14.8s0,9.39-1.12,13.9c-.14.53.67.82.79.29,1.11-4.67,1.86-9.52.71-14.26s-4-8.19-6.78-12c0,0,0,0,0,0Z"/><path class="cls-6" d="M12,27.56c-.51-8.08,2-15.77,5.68-22.85.06-.11-.14-.22-.2-.1-4.05,7.34-7,14.61-6.46,23.13,0,.64,1,.46,1-.17Z"/><path class="cls-7" d="M9.88,30.36C8.36,20,10.93,9.52,15.13.13,15.19,0,15-.06,14.94.06c-4.5,9.51-7.6,19.89-6,30.47a.5.5,0,0,0,1-.17Z"/></symbol><symbol id="Grass_3" data-name="Grass 3" viewBox="0 0 35 60.43"><path class="cls-8" d="M9.66,0c3.32,4.71,7.2,9.14,10,14.41,7.21,13,5.82,27.43,2.22,41.56"/><path class="cls-9" d="M9.65,0c2.86,4,5.28,8.13,7.88,12.36S22.53,21,23.44,26c1.82,9.84-1,22.74-3.52,32.29-.29,1.13,2.51-.82,2.78-1.95.93-3.85,4.41-16.82,1.76-29.65C22.31,16.27,15.69,8.36,9.67,0c0,0,0,0,0,0Z"/><path class="cls-8" d="M14.12,55.54C19.39,31,.61,43.82.27,17.58"/><path class="cls-10" d="M15.29,55.65c1.45-7,1.65-13.72-4.2-18.55C8.9,35.3,6.42,34.27,4.6,32,1.39,28,.71,22.55.53,17.6c-.15-4.36-.55-4.42-.53,0s.46,8.93,2.38,13a24.87,24.87,0,0,0,5.27,6.63c1.79,1.79,3.95,3.12,5.15,5.42,2,3.84,1,8.86.17,12.86-.31,1.48.35,3.38,2.33.22Z"/><path class="cls-8" d="M10.74,56.86c-2.23-13.94-5.28-34.41.65-47.1"/><path class="cls-5" d="M11.34,55c-1.23-7.7-2.16-13.7-2.79-21.47s-.26-16.38,3-23.74c.07-.17-.19-.26-.26-.1C7.93,16.91,7.55,25,7.52,32.79,7.5,40.92,8.79,49,10.07,57c.14.87,2.11.73,2-.13Z"/><path class="cls-8" d="M28.08,56.17c-5.91-16.34,4.35-24,6.78-29.2"/><path class="cls-5" d="M28.69,55.87c-2.13-6.13-2.47-12.81.19-18.83,1.59-3.62,4.44-6.48,6.11-10,.08-.17-.18-.25-.26-.1-1.94,3.83-5.06,6.93-6.95,10.83a21.27,21.27,0,0,0-1,17.69c.29.83,2.17,1.26,1.88.44Z"/><path class="cls-8" d="M17,58.78c-2.2-13.7,8.43-18,1.39-41"/><path class="cls-5" d="M18.51,58.11c-.91-6.1.34-10.7,1.64-16.51,1.79-8,.37-18.3-2.06-26.12a20.23,20.23,0,0,0,.12,2.3C20.57,26,21.26,34,18.66,42.18,16.93,47.67,16.1,52.45,17,58.25c.13.87.41,2.84.28,2Z"/></symbol><symbol id="Grass_4" data-name="Grass 4" viewBox="0 0 44.77 23.83"><path class="cls-5" d="M30.51,17.44l1.52.94S31.68,3.63,32.62,0A49.55,49.55,0,0,0,30.51,17.44Z"/><path class="cls-5" d="M33.79,17.2,35,16.38s-.23-11.59.23-12.76C35.19,3.63,33.44,12.29,33.79,17.2Z"/><path class="cls-5" d="M23.52,22.54l-1.32-.82S22.46,10.13,21.94,9C21.94,9,23.91,17.63,23.52,22.54Z"/><path class="cls-10" d="M37.65,17.67l.82-.82.12-9.6S37.3,14.86,37.65,17.67Z"/><path class="cls-9" d="M28.76,17.67s0-9.59-1.05-11.94c0,0,0,9-.35,10.77Z"/><path class="cls-9" d="M44.77,21.55s0-9.6-1.05-11.94c0,0,0,9-.35,10.77Z"/><path class="cls-9" d="M35.54,19.19s1.05-6.9,3.86-8.66c0,0-3,6.08-2.69,9.6Z"/><path class="cls-9" d="M35.42,19.56s1.05-6.9,3.86-8.66c0,0-3,6.09-2.69,9.6Z"/><path class="cls-10" d="M33.67,17.34S33.79,9,31.33,7C31.33,7,33,15,32.5,19Z"/><path class="cls-5" d="M28.52,19.9s-.35-9.48,1.17-13.34c0,0-.58,12.75,0,15Z"/><path class="cls-10" d="M26.41,16s.12-6.55-.58-9.13c0,0-.12,9.95-.82,12.76Z"/><path class="cls-5" d="M27.24,19.78s-.59-6.44-3.75-9.25c0,0,3.28,8.31,2.81,11Z"/><path class="cls-5" d="M43.12,18.08s-.59-6.44-3.74-9.25c0,0,3.28,8.31,2.81,11Z"/><path class="cls-5" d="M39.06,19.08a7.27,7.27,0,0,1,1.4-4.91s-.82,5.73-.35,7.61Z"/><path class="cls-9" d="M38.33,20.54s0-7.52,2.06-10.31c0,0-1.58,9.58-1.09,13.22Z"/><path class="cls-10" d="M25.11,18.26S23.85,7.77,23.2,6.77c0,0,.83,10.93.32,13Z"/><path class="cls-10" d="M34.33,19.81S35.18,11,36.4,8.41c0,0-.49,7.16-.49,9.1Z"/><path class="cls-10" d="M40.52,20.29s.85-8.85,2.06-11.4c0,0-.49,7.16-.49,9.1Z"/><path class="cls-10" d="M29.6,17.75S30.94,7.44,30,4c0,0,1.94,10.19,1,15.53Z"/><path class="cls-5" d="M3.16,18l-1.52.77S2,6.7,1.05,3.74A33.77,33.77,0,0,1,3.16,18Z"/><path class="cls-5" d="M11.51,17.58l1.17-1S12.45,1.76,12.92.26C12.92.26,11.16,11.31,11.51,17.58Z"/><path class="cls-5" d="M10.16,22.92l1.32-.82s-.26-11.59.26-12.76C11.74,9.34,9.76,18,10.16,22.92Z"/><path class="cls-10" d="M15.37,18.05l.82-.82.12-9.6S15,15.24,15.37,18.05Z"/><path class="cls-9" d="M4.91,18.05S4.91,8.46,6,6.12c0,0,0,9,.35,10.76Z"/><path class="cls-9" d="M22.49,21.93s0-9.59-1.05-11.94c0,0,0,9-.35,10.77Z"/><path class="cls-9" d="M13.27,19.57s1.05-6.9,3.86-8.66c0,0-3,6.09-2.69,9.6Z"/><path class="cls-10" d="M0,17.72S-.11,9.41,2.34,7.42c0,0-1.64,8-1.17,11.94Z"/><path class="cls-5" d="M5.15,20.28S5.5,10.79,4,6.93c0,0,.58,12.76,0,15Z"/><path class="cls-10" d="M7.26,16.35s-.12-6.55.59-9.13c0,0,.12,9.95.82,12.76Z"/><path class="cls-5" d="M20.85,18.46S20.26,12,17.1,9.21c0,0,3.28,8.31,2.81,11Z"/><path class="cls-5" d="M16.78,19.46a7.27,7.27,0,0,1,1.4-4.91s-.82,5.73-.35,7.61Z"/><path class="cls-9" d="M16.06,20.92s0-7.52,2.06-10.31c0,0-1.58,9.58-1.09,13.22Z"/><path class="cls-10" d="M8.56,18.64S9.82,8.15,10.48,7.15c0,0-.84,10.93-.32,13Z"/><path class="cls-10" d="M12.06,20.19s.85-8.85,2.06-11.4c0,0-.49,7.16-.49,9.1Z"/><path class="cls-10" d="M18.24,20.68s.85-8.86,2.06-11.4c0,0-.49,7.16-.49,9.1Z"/><path class="cls-10" d="M4.07,18.13S2.73,7.82,3.7,4.42c0,0-1.94,10.19-1,15.53Z"/><path class="cls-9" d="M10.12,19.94S9.07,13,6.26,11.28c0,0,3,6.08,2.69,9.6Z"/><path class="cls-5" d="M16.83,20.16s-.59-6.44-3.75-9.25c0,0,3.28,8.31,2.81,11Z"/></symbol></defs><title>grass</title><g id="Layer_2" data-name="Layer 2"><g id="Layer_1-2" data-name="Layer 1"><path class="cls-11" d="M828.64,93H.76v7.79H0v233H824.12v-4.52H829V302.52c-.27-3.42-.5-6.83-.68-10.22-3-62-1-125-1-187,0,62-2,125,1,187,.18,3.39.42,6.8.68,10.22V95.16C828.87,94.45,828.76,93.73,828.64,93Z"/><path class="cls-11" d="M828.64,93c.12.71.24,1.43.37,2.14V93Z"/><path class="cls-8" d="M.76,97v7.79H0v233H824.12v-4.52H829V302.52c-.27-3.42-.5-6.83-.68-10.22-3-62-1-125-1-187,0,62-2,125,1,187,.18,3.39.42,6.8.68,10.22V97Z"/><use width="28.9" height="44.07" transform="translate(26.09 90.05) scale(1.59)" xlink:href="#Grass_1"/><use width="17.74" height="30.93" transform="translate(99.23 57.63) scale(1.59)" xlink:href="#Grass_2"/><use width="35" height="60.43" transform="translate(147.67 61.37) scale(1.59)" xlink:href="#Grass_3"/><use width="44.77" height="23.83" transform="translate(2.89) scale(6.06)" xlink:href="#Grass_4"/><use width="28.9" height="44.07" transform="translate(225.33 107.64) scale(1.59)" xlink:href="#Grass_1"/><use width="17.74" height="30.93" transform="translate(298.47 75.21) scale(1.59)" xlink:href="#Grass_2"/><use width="44.77" height="23.83" transform="translate(202.13 17.58) scale(6.06)" xlink:href="#Grass_4"/><use width="28.9" height="44.07" transform="translate(105.21 144.91) scale(1.59)" xlink:href="#Grass_1"/><use width="17.74" height="30.93" transform="translate(178.35 112.48) scale(1.59)" xlink:href="#Grass_2"/><use width="44.77" height="23.83" transform="translate(82.01 54.85) scale(6.06)" xlink:href="#Grass_4"/><use width="28.9" height="44.07" transform="translate(429.3 102.92) scale(1.59)" xlink:href="#Grass_1"/><use width="17.74" height="30.93" transform="translate(502.44 70.49) scale(1.59)" xlink:href="#Grass_2"/><use width="44.77" height="23.83" transform="translate(406.09 12.86) scale(6.06)" xlink:href="#Grass_4"/><use width="28.9" height="44.07" transform="translate(560.62 123.97) scale(1.59)" xlink:href="#Grass_1"/><use width="17.74" height="30.93" transform="translate(633.76 91.54) scale(1.59)" xlink:href="#Grass_2"/><use width="44.77" height="23.83" transform="translate(537.42 33.91) scale(6.06)" xlink:href="#Grass_4"/><use width="28.9" height="44.07" transform="translate(343.34 164.42) scale(1.59)" xlink:href="#Grass_1"/><use width="17.74" height="30.93" transform="translate(416.48 132) scale(1.59)" xlink:href="#Grass_2"/><use width="44.77" height="23.83" transform="translate(320.14 74.37) scale(6.06)" xlink:href="#Grass_4"/><use width="44.77" height="23.83" transform="translate(300.98 17.72) scale(6.06)" xlink:href="#Grass_4"/><use width="44.77" height="23.83" transform="translate(180.87 54.99) scale(6.06)" xlink:href="#Grass_4"/><use width="28.9" height="44.07" transform="translate(442.2 164.56) scale(1.59)" xlink:href="#Grass_1"/><use width="44.77" height="23.83" transform="translate(419 74.51) scale(6.06)" xlink:href="#Grass_4"/><use width="44.77" height="23.83" transform="translate(458.65 52.41) scale(6.06)" xlink:href="#Grass_4"/><use width="44.77" height="23.83" transform="translate(338.54 89.68) scale(6.06)" xlink:href="#Grass_4"/><use width="28.9" height="44.07" transform="translate(599.87 199.25) scale(1.59)" xlink:href="#Grass_1"/><use width="44.77" height="23.83" transform="translate(556.67 109.2) scale(6.06)" xlink:href="#Grass_4"/><use width="44.77" height="23.83" transform="translate(456.45 112.4) scale(6.06)" xlink:href="#Grass_4"/><use width="44.77" height="23.83" transform="translate(336.33 149.67) scale(6.06)" xlink:href="#Grass_4"/><use width="28.9" height="44.07" transform="translate(597.66 259.24) scale(1.59)" xlink:href="#Grass_1"/><use width="44.77" height="23.83" transform="translate(554.46 169.19) scale(6.06)" xlink:href="#Grass_4"/><use width="44.77" height="23.83" transform="translate(294.56 125.93) scale(6.06)" xlink:href="#Grass_4"/><use width="44.77" height="23.83" transform="translate(174.44 163.2) scale(6.06)" xlink:href="#Grass_4"/><use width="28.9" height="44.07" transform="translate(435.78 272.77) scale(1.59)" xlink:href="#Grass_1"/><use width="44.77" height="23.83" transform="translate(412.57 182.72) scale(6.06)" xlink:href="#Grass_4"/><use width="44.77" height="23.83" transform="translate(110.07 167.3) scale(6.06)" xlink:href="#Grass_4"/><use width="44.77" height="23.83" transform="translate(1.95 204.57) scale(6.06)" xlink:href="#Grass_4"/><use width="28.9" height="44.07" transform="translate(261.28 264.14) scale(1.59)" xlink:href="#Grass_1"/><use width="44.77" height="23.83" transform="translate(238.08 174.08) scale(6.06)" xlink:href="#Grass_4"/><use width="44.77" height="23.83" transform="translate(33.67 117.82) scale(6.06)" xlink:href="#Grass_4"/><use width="44.77" height="23.83" transform="translate(133.56 155.09) scale(6.06)" xlink:href="#Grass_4"/><use width="28.9" height="44.07" transform="translate(174.89 264.66) scale(1.59)" xlink:href="#Grass_1"/><use width="44.77" height="23.83" transform="translate(151.69 174.61) scale(6.06)" xlink:href="#Grass_4"/><use width="44.77" height="23.83" transform="translate(148.46 117.82) scale(6.06)" xlink:href="#Grass_4"/><use width="44.77" height="23.83" transform="translate(28.34 155.09) scale(6.06)" xlink:href="#Grass_4"/><use width="28.9" height="44.07" transform="translate(69.67 264.66) scale(1.59)" xlink:href="#Grass_1"/><use width="44.77" height="23.83" transform="translate(46.47 174.61) scale(6.06)" xlink:href="#Grass_4"/><use width="44.77" height="23.83" transform="translate(116.11 116.77) scale(6.06)" xlink:href="#Grass_4"/><use width="44.77" height="23.83" transform="translate(0 154.04) scale(6.06)" xlink:href="#Grass_4"/><use width="28.9" height="44.07" transform="translate(37.33 263.61) scale(1.59)" xlink:href="#Grass_1"/><use width="44.77" height="23.83" transform="translate(14.13 173.56) scale(6.06)" xlink:href="#Grass_4"/><use width="44.77" height="23.83" transform="translate(478.21 214.9) scale(6.06)" xlink:href="#Grass_4"/><use width="44.77" height="23.83" transform="translate(368.1 202.17) scale(6.06)" xlink:href="#Grass_4"/><use width="44.77" height="23.83" transform="translate(426.23 171.69) scale(6.06)" xlink:href="#Grass_4"/><use width="44.77" height="23.83" transform="translate(555.98 132.36) scale(6.06)" xlink:href="#Grass_4"/><use width="44.77" height="23.83" transform="translate(555.86 202.63) scale(6.06)" xlink:href="#Grass_4"/><use width="28.9" height="44.07" transform="translate(700.2 279.2) scale(1.59)" xlink:href="#Grass_1"/><use width="44.77" height="23.83" transform="translate(507 89.15) scale(6.06)" xlink:href="#Grass_4"/><use width="44.77" height="23.83" transform="translate(50.18 74.15) scale(6.06)" xlink:href="#Grass_4"/><use width="44.77" height="23.83" transform="translate(147.96 23.21) scale(6.06)" xlink:href="#Grass_4"/><use width="44.77" height="23.83" transform="translate(157.99 24.62) scale(4.65 6.06)" xlink:href="#Grass_4"/><use width="44.77" height="23.83" transform="translate(150.07 111.42) scale(6.06)" xlink:href="#Grass_4"/><use width="28.9" height="44.07" transform="translate(191.4 220.99) scale(1.59)" xlink:href="#Grass_1"/><use width="44.77" height="23.83" transform="translate(49.11 185.42) scale(6.06)" xlink:href="#Grass_4"/><use width="44.77" height="23.83" transform="translate(50.77 165.62) scale(6.06)" xlink:href="#Grass_4"/><use width="44.77" height="23.83" transform="translate(150.66 202.89) scale(6.06)" xlink:href="#Grass_4"/><use width="44.77" height="23.83" transform="translate(97.75 177.53) scale(6.06)" xlink:href="#Grass_4"/><use width="44.77" height="23.83" transform="translate(107.75 183.02) scale(6.06)" xlink:href="#Grass_4"/><use width="44.77" height="23.83" transform="translate(95.48 123.93) scale(6.06)" xlink:href="#Grass_4"/><use width="44.77" height="23.83" transform="translate(55.64 86.77) scale(6.06)" xlink:href="#Grass_4"/><use width="44.77" height="23.83" transform="translate(10.69 73.23) scale(6.06)" xlink:href="#Grass_4"/><use width="44.77" height="23.83" transform="translate(74.59 69.79) scale(6.06)" xlink:href="#Grass_4"/><use width="44.77" height="23.83" transform="translate(454.37 36.16) scale(6.06 5.02)" xlink:href="#Grass_4"/><use width="44.77" height="23.83" transform="translate(555.66 40.89) scale(6.06 3.49)" xlink:href="#Grass_4"/><use width="44.77" height="23.83" transform="translate(276 24.39) scale(6.06 3.49)" xlink:href="#Grass_4"/><use width="44.77" height="23.83" transform="translate(25.34 37.32) scale(6.06 3.49)" xlink:href="#Grass_4"/><use width="44.77" height="23.83" transform="translate(330.07 45.17) scale(6.06 3.49)" xlink:href="#Grass_4"/><use width="44.77" height="23.83" transform="translate(532.26 56.76) scale(6.06 3.49)" xlink:href="#Grass_4"/><use width="28.9" height="44.07" transform="translate(201.99 262.46) scale(1.59)" xlink:href="#Grass_1"/><use width="44.77" height="23.83" transform="translate(178.79 172.4) scale(6.06)" xlink:href="#Grass_4"/><use width="44.77" height="23.83" transform="translate(509.2 89.42) scale(6.06)" xlink:href="#Grass_4"/><use width="44.77" height="23.83" transform="translate(557.2 34.55) scale(6.06)" xlink:href="#Grass_4"/><use width="17.74" height="30.93" transform="translate(540.81 157.7) scale(3.86)" xlink:href="#Grass_2"/><use width="35" height="60.43" transform="translate(334.29 96.42) scale(2.64)" xlink:href="#Grass_3"/><use width="35" height="60.43" transform="translate(109.39 195.32) scale(2.64)" xlink:href="#Grass_3"/></g></g></svg>